<?xml version="1.0" encoding="utf-8"?>
<!-- Generator: Adobe Illustrator 25.4.1, SVG Export Plug-In . SVG Version: 6.00 Build 0)  -->
<svg version="1.1" id="Layer_1" xmlns="http://www.w3.org/2000/svg" xmlns:xlink="http://www.w3.org/1999/xlink" x="0px" y="0px"
	 viewBox="0 0 612 792" style="enable-background:new 0 0 612 792;" xml:space="preserve">
<style type="text/css">
	.st0{fill:#FFFFFF;}
	.st1{fill:#121212;}
	.st2{fill:#333333;}
</style>
<g>
	<path class="st0" d="M305.99,536.42c-83.95,0-167.89-0.02-251.84,0.09c-3.31,0-4.14-0.51-4.14-4.03
		C50.13,364.57,50.13,196.67,50,28.76c0-3.8,1.03-4.25,4.43-4.24c167.73,0.09,335.45,0.09,503.18-0.01c3.46,0,4.4,0.54,4.4,4.27
		c-0.12,167.74-0.12,335.48,0,503.22c0,3.91-1.07,4.51-4.67,4.5C473.55,536.4,389.77,536.42,305.99,536.42z"/>
	<path class="st1" d="M282.68,386.34c0,33.75,0.06,67.5-0.03,101.25c-0.04,15.87-12.86,28.24-28.45,27.78
		c-10.67-0.32-21.29-8.43-24.68-18.82c-1.36-4.17-1.59-8.46-1.59-12.81c0.02-56.36,0.02-112.72,0.01-169.08
		c0-6.67-0.17-6.76-6.08-3.52c-3.06,1.68-6.07,3.45-9.17,5.05c-13.39,6.94-29.83,2.19-36.85-10.6
		c-7.43-13.54-2.83-29.89,10.76-37.45c12.05-6.71,24.18-13.29,36.43-19.63c3.58-1.85,5.02-4.02,5-8.11
		c-0.15-30.76-0.13-61.51-0.06-92.27c0.03-13.18,7.59-23.55,19.48-27.15c17.56-5.32,35.01,7.44,35.17,25.99
		c0.19,21.28,0.04,42.56,0.06,63.84c0,6.71-0.01,6.64,6.12,3.81c12.07-5.56,24.2-11,36.37-16.35c17.73-7.79,34.39-5.86,51.34,2.41
		c31.43,15.34,61.22,33.51,91.02,51.69c9.36,5.71,18.64,11.57,27.81,17.58c8.19,5.37,12.83,14.22,11.87,22.92
		c-1.84,16.75-13.78,28.99-33.31,25.95c-5.84-0.91-5.83-1.06-5.83,4.89c-0.01,54.37,0.03,108.73-0.03,163.1
		c-0.02,16.25-12.23,28.72-27.72,28.57c-13.61-0.13-25.94-11.68-26.93-25.3c-0.18-2.48-0.12-4.98-0.12-7.48
		c-0.01-63.68-0.1-127.35,0.15-191.03c0.02-6.17-1.86-9.5-7.19-12.48c-17.7-9.89-35.05-20.4-53.45-29
		c-3.14-1.47-5.86-1.54-9.02-0.24c-19.68,8.16-38.62,17.85-57.7,27.26c-3.52,1.74-3.4,4.44-3.4,7.47
		C282.69,318.51,282.68,352.42,282.68,386.34z"/>
	<path class="st2" d="M254.04,95.44c-1.33-0.57-1.85-0.66-2.2-0.96c-14.68-12.82-30.96-12.96-48.02-5.86
		c-9.35,3.89-18.43,8.43-27.83,12.2c-27.03,10.85-57.81-1.07-70.62-27.14c-4.44-9.04-8.84-25.91-8.85-34.37
		c3.8,2.17,6.15,5.6,9.03,8.37C118.83,60.4,134,64.21,151.39,57.74c4.35-1.62,8.58-3.58,12.73-5.66
		c28.74-14.4,65.78-4.65,82.46,21.85C250.59,80.29,253.22,87.19,254.04,95.44z"/>
</g>
</svg>
