<svg id="Layer_1" data-name="Layer 1" xmlns="http://www.w3.org/2000/svg" viewBox="0 0 860.38 300.16"><defs><style>.cls-1{fill:#3c3c3b;}.cls-2{fill:#e67e22;}.cls-3{fill:#e74c3c;}.cls-4{fill:#07871c;}</style></defs><path class="cls-1" d="M497.17,134.12Q481.87,119.2,457,119.21a66.58,66.58,0,0,0-25.1,4.6,51.45,51.45,0,0,0-19.14,13V121.18h-37v133.7h38.75v-66.1q0-17.88,8.7-26.95t23.35-9.07c8.78,0,15.5,2.59,20.13,7.82s7,13.12,7,23.72v70.58h38.76V178.35Q512.44,149,497.17,134.12Z" transform="translate(-2.68 -4.92)"/><path class="cls-1" d="M660,188.52q0-20.85-9.07-36.64a61.53,61.53,0,0,0-25-24.22,79.27,79.27,0,0,0-72,.37,65.33,65.33,0,0,0-25.59,24.58,68.49,68.49,0,0,0-9.3,35.43q0,19.88,9.44,35.52a64.63,64.63,0,0,0,26.84,24.49q17.37,8.8,40,8.81,36.29,0,55.18-21.62L630,212.88a45.06,45.06,0,0,1-15,9.83,51.35,51.35,0,0,1-18.51,3.09q-15.18,0-25.35-7.2A31.55,31.55,0,0,1,558.16,199H659.3C659.8,192.52,660,189,660,188.52ZM557.66,176.36q2-12.92,10.94-20.39t22.12-7.44q12.91,0,21.86,7.58t10.92,20.25Z" transform="translate(-2.68 -4.92)"/><path class="cls-1" d="M666,70.5V254.88h38.78V70.5Z" transform="translate(-2.68 -4.92)"/><path class="cls-1" d="M825.79,121.18,788,211.9l-37.53-90.72h-40l57.9,134.68-.51,1.26q-4,8.92-8.95,12.79c-3.31,2.56-7.62,3.85-12.9,3.85a32.15,32.15,0,0,1-11.57-2.24,33.71,33.71,0,0,1-10.31-6.2L710,292.89a45.39,45.39,0,0,0,16.65,8.95,68.11,68.11,0,0,0,20.64,3.24q19.11,0,32.66-9.46t22.73-32.55l60.38-141.89Z" transform="translate(-2.68 -4.92)"/><polygon class="cls-1" points="203.8 189.02 203.8 250.64 165.7 250.64 165.7 150.93 203.8 189.02"/><polygon class="cls-1" points="98.73 27.81 60.63 27.81 60.63 156.79 98.73 118.68 98.73 27.81"/><polygon class="cls-1" points="98.72 150.92 98.72 250.12 60.63 250.12 60.63 189.02 98.72 150.92"/><rect class="cls-2" x="117.15" y="154.83" width="13.13" height="13.13"/><rect class="cls-2" x="134.15" y="154.83" width="13.13" height="13.13"/><rect class="cls-2" x="117.15" y="171.06" width="13.13" height="13.13"/><rect class="cls-2" x="134.15" y="171.06" width="13.13" height="13.13"/><polygon class="cls-1" points="225.72 158.95 132.21 65.44 130.44 67.21 98.73 98.93 60.63 137.03 39.52 158.15 36.78 160.88 35.81 161.85 58.12 184.16 60.63 181.65 98.73 143.54 132.21 110.05 165.7 143.55 203.8 181.65 206.31 184.16 228.62 161.85 225.72 158.95"/><path class="cls-1" d="M301.29,256.56a68.45,68.45,0,1,1,68.45-68.45A68.53,68.53,0,0,1,301.29,256.56Zm0-105.66a37.21,37.21,0,1,0,37.21,37.21A37.26,37.26,0,0,0,301.29,150.9Z" transform="translate(-2.68 -4.92)"/><path class="cls-3" d="M5.21,18.69A23.92,23.92,0,0,0,15.45,29.9c8.91,4.76,19.67,2.72,28-2.36A83.24,83.24,0,0,1,51.18,23a24.86,24.86,0,0,1,12-2.58c6.86.38,13.47,3.76,19.2,7.33-.42-4.66-3-9.32-6-12.84A27.21,27.21,0,0,0,63.13,6.29a30.17,30.17,0,0,0-17,.28,50.75,50.75,0,0,0-12.24,6,29.86,29.86,0,0,1-8.23,3.79,13.86,13.86,0,0,1-9.44-.89C11.09,13.17,6.8,9,2.9,4.92,2.17,9.47,3.32,14.55,5.21,18.69Z" transform="translate(-2.68 -4.92)"/><rect class="cls-4" x="60.63" y="255.91" width="143.17" height="21.8"/></svg>