<?xml version="1.0" encoding="utf-8"?>
<!-- Generator: Adobe Illustrator 16.0.3, SVG Export Plug-In . SVG Version: 6.00 Build 0)  -->
<!DOCTYPE svg PUBLIC "-//W3C//DTD SVG 1.0//EN" "http://www.w3.org/TR/2001/REC-SVG-20010904/DTD/svg10.dtd">
<svg version="1.0" id="Layer_1" xmlns="http://www.w3.org/2000/svg" xmlns:xlink="http://www.w3.org/1999/xlink" x="0px" y="0px"
	 width="1296.5px" height="378px" viewBox="0 0 1296.5 378" enable-background="new 0 0 1296.5 378" xml:space="preserve">
<g enable-background="new    ">
	<path d="M796.307,90.866h14.139l52.09,133.297h-13.58l-16.186-41.445h-60.461l-15.999,41.445h-13.581L796.307,90.866z
		 M776.215,171.89h52.276l-25.673-68.329L776.215,171.89z"/>
	<path d="M882.443,90.866h11.72v133.297h-11.72V90.866z"/>
	<path d="M933.418,179.17c0.186,17.175,9.115,37.898,31.625,37.898c17.115,0,26.418-10.081,30.139-24.643h11.72
		c-5.022,21.843-17.673,34.537-41.858,34.537c-30.51,0-43.346-23.522-43.346-50.966c0-25.39,12.836-50.967,43.346-50.967
		c30.883,0,43.16,27.07,42.23,54.141H933.418z M995.553,169.276c-0.558-17.736-11.533-34.351-30.51-34.351
		c-19.161,0-29.766,16.802-31.625,34.351H995.553z"/>
	<path d="M1032.948,127.831h10.79v22.589h0.372c5.953-15.495,18.976-24.643,36.276-23.896v11.762
		c-21.207-1.12-35.719,14.562-35.719,34.538v51.34h-11.72V127.831z"/>
	<path d="M1120.012,127.831h19.533v9.895h-19.533v64.968c0,7.654,1.116,12.135,9.488,12.695c3.348,0,6.697-0.187,10.045-0.561
		v10.082c-3.534,0-6.883,0.373-10.418,0.373c-15.627,0-21.021-5.228-20.836-21.656v-65.902h-16.742v-9.895h16.742V98.893h11.721
		V127.831z"/>
	<path d="M1223.818,156.021c-0.558-14.562-11.72-21.096-25.114-21.096c-10.418,0-22.696,4.107-22.696,16.615
		c0,10.455,11.906,14.188,19.906,16.242l15.627,3.547c13.395,2.053,27.347,9.895,27.347,26.697
		c0,20.909-20.649,28.937-38.509,28.937c-22.324,0-37.58-10.454-39.439-33.977h11.72c0.931,15.868,12.65,24.082,28.277,24.082
		c10.976,0,26.231-4.854,26.231-18.295c0-11.202-10.418-14.936-21.022-17.549l-15.069-3.36
		c-15.254-4.107-26.789-9.334-26.789-25.764c0-19.603,19.162-27.07,36.092-27.07c19.161,0,34.416,10.082,35.16,30.991H1223.818z"/>
</g>
<g>
	<path fill="#67686A" d="M29.172,278.427v-6.612h555.795v6.697L29.172,278.427z M737.181,278.427v-6.612h333.182v6.697
		L737.181,278.427z"/>
</g>
<g>
	<g>
		<path fill="#6A6970" d="M1208.381,97.797c-3.488-62.015-59.661-62.299-61.996-62.279l-0.065-9.007h0.012
			c1.317,0,67.097,0.662,71.045,70.78L1208.381,97.797z"/>
	</g>
	<g>
		<path fill="#6A6970" d="M1186.208,97.837c-2.543-38.986-38.58-41.477-40.114-41.569l0.518-8.99
			c0.449,0.024,45.535,3.127,48.589,49.972L1186.208,97.837z"/>
	</g>
	<g>
		<path fill="#6A6970" d="M1164.034,97.811c-1.145-18.983-16.854-18.679-17.531-18.651l-0.308-9.003
			c8.697-0.285,25.5,4.992,26.824,27.12L1164.034,97.811z"/>
	</g>
	<g>
		<path fill="#6A6970" d="M1152.956,97.544c0-3.649-2.958-6.604-6.607-6.604c-3.644,0-6.605,2.956-6.605,6.604
			c0,3.647,2.963,6.606,6.605,6.606C1149.998,104.15,1152.956,101.191,1152.956,97.544"/>
	</g>
</g>
<g enable-background="new    ">
	<path fill="#144E9A" d="M32.579,89.407h23.254v52.834h60.461V89.407h23.254v132.829h-23.254v-59.903H55.833v59.903H32.579V89.407z"
		/>
	<path fill="#144E9A" d="M160.014,174.053c0-29.393,17.673-50.602,48.555-50.602s48.555,21.209,48.555,50.602
		c0,29.58-17.673,50.788-48.555,50.788S160.014,203.633,160.014,174.053z M235.917,174.053c0-16.557-8.372-33.857-27.347-33.857
		s-27.347,17.301-27.347,33.857c0,16.744,8.372,34.045,27.347,34.045S235.917,190.797,235.917,174.053z"/>
	<path fill="#144E9A" d="M359.259,222.236h-20.836v-13.395h-0.372c-5.209,9.674-16.743,15.999-27.347,15.999
		c-25.115,0-35.905-12.65-35.905-37.765v-61.02h21.208v58.973c0,16.93,6.883,23.068,18.417,23.068
		c17.673,0,23.626-11.348,23.626-26.23v-55.811h21.208V222.236z"/>
	<path fill="#144E9A" d="M397.584,191.354c1.116,12.278,10.418,16.743,21.766,16.743c8,0,21.953-1.674,21.395-12.65
		c-0.559-11.162-15.999-12.465-31.439-15.999c-15.627-3.349-30.883-8.93-30.883-28.464c0-21.021,22.697-27.533,40.184-27.533
		c19.721,0,37.58,8.186,40.184,29.58h-22.138c-1.86-10.046-10.231-12.836-19.534-12.836c-6.139,0-17.486,1.488-17.486,9.859
		c0,10.418,15.627,11.906,31.254,15.441c15.44,3.534,31.067,9.115,31.067,28.091c0,22.882-23.068,31.254-42.974,31.254
		c-24.186,0-42.23-10.79-42.603-33.486H397.584z"/>
	<path fill="#144E9A" d="M478.697,89.407h21.209v20.092h-21.209V89.407z M478.697,126.057h21.209v96.18h-21.209V126.057z"/>
	<path fill="#144E9A" d="M522.975,126.057h20.092v14.139l0.372,0.371c6.325-10.604,17.302-17.115,29.952-17.115
		c20.836,0,34.044,11.162,34.044,32.742v66.043h-21.208v-60.461c-0.372-15.069-6.325-21.58-18.789-21.58
		c-14.139,0-23.255,11.162-23.255,25.301v56.74h-21.208V126.057z"/>
	<path fill="#144E9A" d="M718.686,217.213c0,28.836-16.93,43.16-47.253,43.16c-19.348,0-41.114-7.441-42.974-29.951h21.207
		c2.605,12.092,12.279,14.139,23.068,14.139c17.115,0,24.743-8.744,24.743-24.557v-14.697h-0.372
		c-5.953,10.604-16.93,16.93-28.836,16.93c-30.51,0-43.16-23.068-43.16-50.602c0-25.859,16.186-48.184,43.533-48.184
		c12.092,0,23.068,5.023,28.463,15.813h0.372v-13.208h21.208V217.213z M697.478,172.007c0-16.558-7.441-31.812-25.858-31.812
		c-18.79,0-25.301,17.486-25.301,33.486c0,15.813,7.627,31.812,25.301,31.812C690.408,205.493,697.478,188.378,697.478,172.007z"/>
</g>
<g enable-background="new    ">
	<path fill="#6A6970" d="M89.781,301.59H74.762l1.877-8.851h39.96l-1.877,8.851h-14.348l-8.18,39.021H81.601L89.781,301.59z"/>
	<path fill="#6A6970" d="M124.576,305.01c9.521,0,16.158,4.692,16.158,14.683c0,12.203-7.576,21.857-20.181,21.857
		c-9.655,0-15.89-5.028-15.89-14.951C104.663,314.865,112.239,305.01,124.576,305.01z M121.022,334.376
		c7.107,0,10.191-8.716,10.191-14.549c0-4.627-2.011-7.644-6.973-7.644c-6.973,0-10.057,8.582-10.057,14.415
		C114.184,330.688,116.53,334.376,121.022,334.376z"/>
	<path fill="#6A6970" d="M151.122,305.948h9.118l-1.072,4.895h0.134c2.883-3.889,7.174-5.833,12.136-5.833
		c4.157,0,7.576,1.877,8.381,6.034c2.347-3.554,7.308-6.034,11.733-6.034c5.431,0,10.527,2.815,10.527,8.783
		c0,2.145-0.604,4.357-1.006,6.436l-4.291,20.383h-9.521l4.56-21.925c0.134-1.005,0.268-1.81,0.268-2.48
		c0-2.078-1.743-3.688-4.157-3.688c-5.096,0-7.979,5.297-8.917,9.521l-3.889,18.572h-9.588l4.559-21.925
		c0.134-1.005,0.269-1.81,0.269-2.48c0-2.078-1.743-3.688-4.157-3.688c-5.095,0-7.979,5.297-8.917,9.521l-3.889,18.572h-9.521
		L151.122,305.948z"/>
	<path fill="#6A6970" d="M227.014,305.01c9.521,0,16.158,4.692,16.158,14.683c0,12.203-7.576,21.857-20.181,21.857
		c-9.655,0-15.89-5.028-15.89-14.951C207.101,314.865,214.677,305.01,227.014,305.01z M223.46,334.376
		c7.107,0,10.191-8.716,10.191-14.549c0-4.627-2.011-7.644-6.973-7.644c-6.973,0-10.057,8.582-10.057,14.415
		C216.622,330.688,218.968,334.376,223.46,334.376z"/>
	<path fill="#6A6970" d="M253.561,305.948h9.051l-1.408,6.235l0.134,0.134c2.146-4.761,6.839-7.308,11.935-7.308
		c1.006,0,1.944,0.066,2.95,0.201l-1.944,9.252c-1.341-0.269-2.682-0.604-4.023-0.604c-7.308,0-9.923,5.498-11.197,11.398
		l-3.218,15.354h-9.521L253.561,305.948z"/>
	<path fill="#6A6970" d="M283.259,305.948h9.051l-1.408,6.235l0.134,0.134c2.146-4.761,6.839-7.308,11.935-7.308
		c1.006,0,1.944,0.066,2.95,0.201l-1.944,9.252c-1.341-0.269-2.682-0.604-4.023-0.604c-7.308,0-9.923,5.498-11.197,11.398
		l-3.218,15.354h-9.521L283.259,305.948z"/>
	<path fill="#6A6970" d="M324.424,305.01c9.521,0,16.158,4.692,16.158,14.683c0,12.203-7.576,21.857-20.181,21.857
		c-9.655,0-15.89-5.028-15.89-14.951C304.511,314.865,312.087,305.01,324.424,305.01z M320.87,334.376
		c7.107,0,10.191-8.716,10.191-14.549c0-4.627-2.012-7.644-6.973-7.644c-6.973,0-10.057,8.582-10.057,14.415
		C314.031,330.688,316.378,334.376,320.87,334.376z"/>
	<path fill="#6A6970" d="M381.343,340.611h-9.923l-1.207-24.338h-0.134l-10.728,24.338h-9.99l-3.822-34.663h9.722l1.341,24.405
		h0.134l10.66-24.405h9.655l1.073,24.204h0.134l11.13-24.204h10.057L381.343,340.611z"/>
	<path fill="#6A6970" d="M408.625,292.739h10.594l-2.146,10.325c-1.207,5.968-4.291,10.862-12.94,11.197l1.006-4.693
		c3.956-0.737,5.229-2.682,5.967-6.504h-4.626L408.625,292.739z"/>
	<path fill="#6A6970" d="M443.622,316.072c-0.067-2.95-1.743-4.693-5.363-4.693c-3.353,0-5.834,0.938-5.834,3.419
		c0,1.542,1.141,2.481,4.358,3.486l4.761,1.543c5.096,1.676,9.118,4.09,9.118,9.923c0,8.582-8.515,11.8-16.494,11.8
		c-6.771,0-14.75-2.682-14.75-10.794v-1.408h8.851v1.14c0,3.151,3.553,4.693,6.839,4.693c2.883,0,6.034-1.006,6.034-4.157
		c0-2.413-1.341-3.151-3.42-3.821l-7.308-2.347c-4.761-1.542-7.51-3.42-7.51-8.851c0-8.18,8.649-10.995,15.354-10.995
		c7.576,0,14.348,2.146,14.214,11.063H443.622z"/>
	<path fill="#6A6970" d="M485.119,292.739h22.863c8.648-0.134,14.28,3.286,14.28,12.538c0,6.504-4.559,11.935-10.995,12.873v0.134
		c3.955,1.207,4.961,4.693,4.961,8.448c0,2.146-0.335,5.364-0.335,8.314c0,2.146,0.134,4.156,0.671,5.564h-10.259
		c-0.268-1.14-0.469-2.146-0.469-3.219c0-3.218,0.536-6.503,0.536-9.722c0-4.626-2.749-5.766-6.906-5.766h-9.923l-3.956,18.706
		h-10.526L485.119,292.739z M491.153,314.396h9.722c5.565-0.066,10.861-2.212,10.861-7.576c0-5.162-3.62-5.899-7.777-5.899h-9.99
		L491.153,314.396z"/>
	<path fill="#6A6970" d="M534.527,325.593c-0.066,0.872-0.066,1.475-0.066,2.012c0,4.022,2.48,6.771,7.644,6.771
		c3.821,0,5.698-2.548,7.106-4.761h9.521c-3.017,7.777-7.979,11.935-17.969,11.935c-9.252,0-15.42-5.297-15.42-15.152
		c0-11.063,7.308-21.388,19.108-21.388c9.654,0,16.158,5.095,16.158,15.152c0,1.877-0.201,3.755-0.536,5.431H534.527z
		 M551.424,319.559c0-3.554-0.872-7.375-6.437-7.375c-5.364,0-8.046,3.486-9.454,7.375H551.424z"/>
	<path fill="#6A6970" d="M568.114,316.475c1.207-8.717,8.582-11.465,16.427-11.465c6.169,0,14.55,1.341,14.415,9.118
		c0,1.475-0.335,3.688-0.737,5.833l-3.084,13.945c-0.335,1.207-0.47,3.353-0.47,4.693c0,0.604,0.135,1.408,0.336,2.012h-9.521
		v-3.419c-2.614,2.949-6.704,4.357-10.593,4.357c-7.577,0-11.265-4.291-11.265-9.118c0-6.638,5.029-10.795,13.275-11.801
		c8.984-1.072,13.209-0.603,13.209-5.028c0-3.419-3.621-4.224-6.034-4.224c-3.42,0-6.437,1.609-7.04,5.096H568.114z
		 M588.229,323.983c-2.413,1.408-5.297,1.476-8.046,1.677c-3.62,0.402-7.039,1.273-7.039,5.632c0,2.614,2.48,3.889,5.229,3.889
		c5.9,0,7.845-4.09,8.917-7.845L588.229,323.983z"/>
	<path fill="#6A6970" d="M612.898,292.739h9.521l-10.191,47.872h-9.521L612.898,292.739z"/>
	<path fill="#6A6970" d="M651.179,292.739h36.54l-1.81,8.851h-26.015l-2.146,10.258h24.07l-1.743,8.181h-24.07l-2.48,11.732h26.416
		l-1.877,8.851h-36.943L651.179,292.739z"/>
	<path fill="#6A6970" d="M710.646,316.072c-0.067-2.95-1.743-4.693-5.363-4.693c-3.353,0-5.834,0.938-5.834,3.419
		c0,1.542,1.141,2.481,4.358,3.486l4.761,1.543c5.096,1.676,9.118,4.09,9.118,9.923c0,8.582-8.515,11.8-16.494,11.8
		c-6.771,0-14.75-2.682-14.75-10.794v-1.408h8.851v1.14c0,3.151,3.553,4.693,6.839,4.693c2.883,0,6.034-1.006,6.034-4.157
		c0-2.413-1.341-3.151-3.42-3.821l-7.308-2.347c-4.761-1.542-7.51-3.42-7.51-8.851c0-8.18,8.649-10.995,15.354-10.995
		c7.576,0,14.348,2.146,14.214,11.063H710.646z"/>
	<path fill="#6A6970" d="M741.417,305.948h6.839l-1.475,6.369h-6.771l-3.554,17.231c-0.134,0.737-0.269,1.341-0.269,1.608
		c0,2.481,1.811,2.548,3.219,2.548c1.14,0,2.279-0.066,3.419-0.201l-1.609,7.376c-1.944,0.201-3.955,0.335-5.967,0.335
		c-4.425,0-9.186-1.408-9.052-7.04c0-0.872,0.201-2.078,0.47-3.285l3.889-18.572h-6.235l1.476-6.369h6.101l2.146-10.526h9.521
		L741.417,305.948z"/>
	<path fill="#6A6970" d="M752.544,316.475c1.207-8.717,8.582-11.465,16.427-11.465c6.169,0,14.55,1.341,14.415,9.118
		c0,1.475-0.335,3.688-0.737,5.833l-3.084,13.945c-0.335,1.207-0.47,3.353-0.47,4.693c0,0.604,0.135,1.408,0.336,2.012h-9.521
		v-3.419c-2.614,2.949-6.704,4.357-10.593,4.357c-7.577,0-11.265-4.291-11.265-9.118c0-6.638,5.029-10.795,13.275-11.801
		c8.984-1.072,13.209-0.603,13.209-5.028c0-3.419-3.621-4.224-6.034-4.224c-3.42,0-6.437,1.609-7.04,5.096H752.544z
		 M772.658,323.983c-2.413,1.408-5.297,1.476-8.046,1.677c-3.62,0.402-7.039,1.273-7.039,5.632c0,2.614,2.48,3.889,5.229,3.889
		c5.9,0,7.845-4.09,8.917-7.845L772.658,323.983z"/>
	<path fill="#6A6970" d="M806.58,305.948h6.839l-1.475,6.369h-6.771l-3.554,17.231c-0.134,0.737-0.269,1.341-0.269,1.608
		c0,2.481,1.811,2.548,3.219,2.548c1.14,0,2.279-0.066,3.419-0.201l-1.609,7.376c-1.944,0.201-3.955,0.335-5.967,0.335
		c-4.425,0-9.186-1.408-9.052-7.04c0-0.872,0.201-2.078,0.47-3.285l3.889-18.572h-6.235l1.476-6.369h6.101l2.146-10.526h9.521
		L806.58,305.948z"/>
	<path fill="#6A6970" d="M823.541,325.593c-0.066,0.872-0.066,1.475-0.066,2.012c0,4.022,2.48,6.771,7.644,6.771
		c3.821,0,5.698-2.548,7.106-4.761h9.521c-3.017,7.777-7.979,11.935-17.969,11.935c-9.252,0-15.42-5.297-15.42-15.152
		c0-11.063,7.308-21.388,19.108-21.388c9.654,0,16.158,5.095,16.158,15.152c0,1.877-0.201,3.755-0.536,5.431H823.541z
		 M840.438,319.559c0-3.554-0.872-7.375-6.437-7.375c-5.364,0-8.046,3.486-9.454,7.375H840.438z"/>
	<path fill="#6A6970" d="M881.264,301.59h-15.019l1.878-8.851h39.96l-1.877,8.851h-14.349l-8.18,39.021h-10.594L881.264,301.59z"/>
	<path fill="#6A6970" d="M916.059,305.01c9.521,0,16.159,4.692,16.159,14.683c0,12.203-7.577,21.857-20.182,21.857
		c-9.654,0-15.89-5.028-15.89-14.951C896.146,314.865,903.723,305.01,916.059,305.01z M912.506,334.376
		c7.106,0,10.19-8.716,10.19-14.549c0-4.627-2.011-7.644-6.973-7.644c-6.973,0-10.057,8.582-10.057,14.415
		C905.667,330.688,908.014,334.376,912.506,334.376z"/>
	<path fill="#6A6970" d="M960.574,336.32l-0.134-0.134c-2.146,3.754-6.169,5.363-10.393,5.363c-8.314,0-13.208-5.363-13.208-13.678
		c0-11.397,6.101-22.862,18.907-22.862c4.022,0,8.246,1.743,9.722,5.564h0.134l3.822-17.835h9.521l-10.124,47.872h-9.186
		L960.574,336.32z M946.36,326.666c0,4.156,2.279,7.71,6.771,7.71c7.107,0,10.459-8.716,10.459-14.684
		c0-4.425-2.212-7.509-6.839-7.509C949.578,312.184,946.36,320.564,946.36,326.666z"/>
	<path fill="#6A6970" d="M982.092,316.475c1.207-8.717,8.582-11.465,16.427-11.465c6.169,0,14.55,1.341,14.415,9.118
		c0,1.475-0.335,3.688-0.737,5.833l-3.084,13.945c-0.335,1.207-0.47,3.353-0.47,4.693c0,0.604,0.135,1.408,0.336,2.012h-9.521
		v-3.419c-2.614,2.949-6.704,4.357-10.593,4.357c-7.576,0-11.265-4.291-11.265-9.118c0-6.638,5.029-10.795,13.275-11.801
		c8.984-1.072,13.209-0.603,13.209-5.028c0-3.419-3.621-4.224-6.034-4.224c-3.42,0-6.437,1.609-7.04,5.096H982.092z
		 M1002.206,323.983c-2.413,1.408-5.297,1.476-8.045,1.677c-3.621,0.402-7.04,1.273-7.04,5.632c0,2.614,2.48,3.889,5.229,3.889
		c5.9,0,7.845-4.09,8.917-7.845L1002.206,323.983z"/>
	<path fill="#6A6970" d="M1031.837,345.506c-3.285,5.967-6.302,7.308-13.476,7.308c-1.677,0-3.42-0.268-5.096-0.335l1.608-7.911
		c1.274,0,2.615,0.402,3.889,0.402c4.492,0,5.029-2.884,6.303-4.693l-6.168-34.328h9.789l3.017,24.808h0.134l12.002-24.808h10.057
		L1031.837,345.506z"/>
</g>
<g enable-background="new    ">
	<path fill="#144E9A" d="M1105.293,269.216h7.922v7.694h-7.922V269.216z"/>
	<path fill="#144E9A" d="M1140.512,257.305c-0.513-3.59-3.135-5.527-6.725-5.527c-3.363,0-8.094,1.767-8.094,10.714
		c0,4.901,2.166,10.088,7.809,10.088c3.762,0,6.383-2.508,7.01-6.726h6.497c-1.196,7.637-5.927,11.854-13.507,11.854
		c-9.232,0-14.305-6.554-14.305-15.217c0-8.891,4.844-15.844,14.532-15.844c6.839,0,12.652,3.42,13.279,10.657H1140.512z"/>
	<path fill="#144E9A" d="M1150.938,262.149c0-9.005,5.414-15.502,14.875-15.502s14.875,6.497,14.875,15.502
		c0,9.062-5.414,15.559-14.875,15.559S1150.938,271.211,1150.938,262.149z M1174.19,262.149c0-5.072-2.564-10.372-8.378-10.372
		c-5.813,0-8.377,5.3-8.377,10.372c0,5.129,2.564,10.43,8.377,10.43C1171.626,272.579,1174.19,267.278,1174.19,262.149z"/>
	<path fill="#144E9A" d="M1186.098,247.445h6.154v4.104h0.172c1.938-2.906,4.388-4.901,9.061-4.901c3.591,0,6.953,1.539,8.264,4.901
		c2.166-3.021,4.959-4.901,9.233-4.901c6.212,0,9.859,2.735,9.859,9.917v20.346h-6.497v-17.212c0-4.673-0.285-7.921-5.357-7.921
		c-4.389,0-6.269,2.906-6.269,7.864v17.269h-6.497v-18.921c0-4.047-1.254-6.212-5.187-6.212c-3.362,0-6.44,2.735-6.44,7.637v17.496
		h-6.496V247.445z"/>
</g>
<g>
	<g>
		<path d="M1247.739,140.253c-6.396,0-11.599-5.202-11.599-11.597c0-6.396,5.201-11.598,11.599-11.598
			c6.396,0,11.599,5.201,11.599,11.598C1259.338,135.051,1254.137,140.253,1247.739,140.253 M1247.739,118.306
			c-5.703,0-10.348,4.644-10.348,10.351s4.645,10.348,10.348,10.348c5.705,0,10.35-4.641,10.35-10.348
			C1258.089,122.949,1253.444,118.306,1247.739,118.306"/>
	</g>
	<g>
		<path d="M1244.212,120.947c0.956-0.197,2.329-0.308,3.635-0.308c2.022,0,3.329,0.37,4.238,1.2
			c0.743,0.652,1.161,1.652,1.161,2.783c0,1.94-1.219,3.225-2.77,3.747v0.066c1.136,0.392,1.813,1.438,2.157,2.958
			c0.479,2.048,0.825,3.463,1.134,4.03h-1.957c-0.245-0.414-0.566-1.677-0.985-3.507c-0.435-2.023-1.214-2.786-2.938-2.851h-1.783
			v6.358h-1.892V120.947z M1246.104,127.627h1.938c2.024,0,3.308-1.111,3.308-2.785c0-1.894-1.365-2.72-3.368-2.741
			c-0.916,0-1.569,0.085-1.877,0.173V127.627z"/>
	</g>
</g>
</svg>
