<?xml version="1.0" standalone="no"?>
<!DOCTYPE svg PUBLIC "-//W3C//DTD SVG 20010904//EN"
 "http://www.w3.org/TR/2001/REC-SVG-20010904/DTD/svg10.dtd">
<svg version="1.0" xmlns="http://www.w3.org/2000/svg"
 width="966.000000pt" height="966.000000pt" viewBox="0 0 966.000000 966.000000"
 preserveAspectRatio="xMidYMid meet">
<metadata>
Created by potrace 1.11, written by Peter Selinger 2001-2013
</metadata>
<g transform="translate(0.000000,966.000000) scale(0.100000,-0.100000)"
fill="#000000" stroke="none">
<path d="M231 9544 c4 -239 104 -473 269 -632 57 -56 135 -110 197 -138 32
-15 65 -30 73 -34 79 -38 293 -56 433 -37 151 21 329 93 509 206 171 108 309
168 438 192 64 11 201 14 250 4 112 -22 147 -31 230 -62 94 -35 253 -114 320
-160 22 -15 36 -19 39 -12 8 26 -23 130 -69 224 -194 402 -620 615 -1060 530
-14 -3 -34 -7 -46 -9 -52 -10 -211 -69 -284 -106 -45 -23 -133 -73 -197 -112
-197 -122 -307 -159 -448 -154 -180 8 -326 92 -570 329 -33 32 -65 63 -73 69
-11 9 -13 -8 -11 -98z"/>
<path d="M2330 6793 l0 -1898 -431 -431 -431 -431 374 -374 c206 -206 381
-380 391 -387 15 -12 156 125 1300 1271 l1284 1285 1287 -1287 1286 -1286 389
389 389 389 -1674 1676 -1675 1675 -580 -580 -579 -579 0 85 c0 47 0 601 -1
1233 l0 1147 -664 0 -665 0 0 -1897z"/>
<path d="M2990 3750 l-660 -660 0 -1059 c0 -838 3 -1060 12 -1063 7 -2 306 -4
663 -3 l650 0 2 1723 c2 947 0 1722 -2 1722 -3 0 -302 -297 -665 -660z"/>
<path d="M5980 2682 l0 -1732 663 0 663 0 0 1069 0 1070 -663 663 -663 663 0
-1733z"/>
<path d="M4299 4276 c-1 0 -2 -103 -3 -228 l-1 -228 227 0 228 0 0 229 0 228
-225 0 c-124 0 -226 0 -226 -1z"/>
<path d="M4893 4271 c-5 -3 -9 -105 -8 -226 l0 -220 228 -3 227 -2 0 22 c4
275 4 428 0 430 -16 5 -440 4 -447 -1z"/>
<path d="M4309 3712 c-12 -2 -14 -40 -14 -230 l0 -227 225 0 225 0 3 230 2
230 -213 0 c-117 0 -220 -1 -228 -3z"/>
<path d="M4910 3712 l-25 -3 0 -219 c0 -120 4 -222 8 -227 14 -13 439 -10 444
3 9 25 8 444 -2 445 -38 2 -405 3 -425 1z"/>
<path d="M2335 761 c-2 -4 -3 -174 -3 -379 l0 -372 2486 2 2486 3 1 355 c0
195 -1 364 -3 376 l-4 21 -2479 0 c-1364 0 -2482 -3 -2484 -6z"/>
</g>
</svg>
